<?xml version="1.0" encoding="UTF-8" standalone="no"?>
<svg
   xmlns:dc="http://purl.org/dc/elements/1.1/"
   xmlns:cc="http://creativecommons.org/ns#"
   xmlns:rdf="http://www.w3.org/1999/02/22-rdf-syntax-ns#"
   xmlns:svg="http://www.w3.org/2000/svg"
   xmlns="http://www.w3.org/2000/svg"
   id="svg8"
   version="1.1"
   viewBox="0 0 100 58.86113"
   height="58.86113mm"
   width="100mm">
  <defs
     id="defs2" />
  <metadata
     id="metadata5">
    <rdf:RDF>
      <cc:Work
         rdf:about="">
        <dc:format>image/svg+xml</dc:format>
        <dc:type
           rdf:resource="http://purl.org/dc/dcmitype/StillImage" />
        <dc:title></dc:title>
      </cc:Work>
    </rdf:RDF>
  </metadata>
  <g
     transform="translate(0,-238.13885)"
     id="layer1">
    <path
       id="path834"
       d="m 46.031906,296.93099 c -0.271947,-0.0255 -1.289056,-0.11346 -2.260249,-0.1954 -12.936016,-1.09034 -25.324241,-5.98414 -32.77354,-12.94674 l -1.0594893,-0.99026 -1.5539172,0.0637 c -1.8687441,0.0766 -2.7799767,-0.12313 -4.7081323,-1.03242 -2.2539427,-1.06288 -3.56580083,-2.70207 -3.66886662,-4.58429 -0.08958108,-1.63603 0.59904532,-2.61502 2.18371782,-3.10447 0.5090771,-0.15717 1.1665095,-0.28589 1.4609624,-0.28589 h 0.5353675 l -0.2621977,-0.84244 c -0.8345657,-2.68148 -1.0189586,-6.45079 -0.4440062,-9.0763 1.0406789,-4.75229 3.7891746,-9.23261 7.9403576,-12.94358 4.679609,-4.18338 10.973035,-7.58195 18.082109,-9.76472 5.234144,-1.6071 10.492599,-2.55804 16.514386,-2.98647 2.899831,-0.20633 9.876811,-0.0866 12.797998,0.21972 12.462482,1.30656 23.471311,5.5131 30.963269,11.83127 l 1.156312,0.97514 0.538871,-0.27377 c 1.796527,-0.91266 4.161658,-1.24789 5.802131,-0.82236 2.270428,0.58894 3.335241,2.78694 2.362461,4.8766 -0.406093,0.87234 -1.713186,2.20446 -2.651443,2.70222 l -0.624798,0.33144 0.606278,1.28248 c 2.054992,4.34703 2.43771,8.97039 1.123526,13.57255 -0.475636,1.66556 -2.088863,4.88441 -3.288322,6.56107 -1.197623,1.67413 -3.912252,4.49965 -5.720241,5.95395 -7.854904,6.31826 -19.494205,10.43367 -32.309305,11.42388 -1.705477,0.13181 -9.503786,0.17175 -10.743239,0.0551 z m 12.423523,-2.37351 c 2.484377,-0.25489 5.609621,-0.7103 6.859184,-0.99952 0.466176,-0.10795 1.578639,-0.36051 2.472131,-0.56135 8.076813,-1.81546 15.971895,-5.6554 21.095051,-10.26001 7.442488,-6.68918 9.540994,-15.10298 5.703223,-22.86661 l -0.593564,-1.20075 -1.171945,-0.0971 c -0.64457,-0.0534 -1.407403,-0.17443 -1.695183,-0.2689 -1.09351,-0.35896 -2.240845,-1.34059 -2.595199,-2.22039 l -0.188289,-0.46746 -1.614561,1.52695 c -3.328199,3.14759 -7.333936,8.12278 -9.932488,12.33633 -1.691012,2.74197 -3.61069,6.63841 -4.626982,9.39155 -0.143323,0.38847 -0.609515,1.65986 -1.035814,2.8253 -0.588192,1.60807 -0.838298,2.1288 -1.037332,2.15974 -0.273765,0.0425 -1.39624,-1.10184 -3.226854,-3.28986 -2.312807,-2.76435 -4.764599,-7.05008 -5.778305,-10.10047 -0.813504,-2.44794 -0.826702,-2.28304 0.386071,-4.81934 1.490176,-3.1164 3.178485,-5.91681 3.567126,-5.91681 0.166849,0 0.202754,0.38969 0.20504,2.22493 0.005,3.82561 0.57149,6.83813 1.919311,10.20181 0.688184,1.71748 1.675445,3.6318 2.545661,4.93612 l 0.321368,0.48166 1.181255,-2.45938 c 0.984691,-2.05014 2.434907,-4.67337 3.847582,-6.95971 0.894976,-1.4485 3.111595,-4.39483 5.009399,-6.65857 1.892298,-2.25716 6.297171,-6.65314 8.464903,-8.44783 l 0.476704,-0.39468 -0.607096,-0.52356 c -1.772417,-1.5285 -4.656414,-3.48438 -7.084564,-4.80461 l -1.086452,-0.59072 0.288699,0.65267 c 0.362195,0.8188 0.317146,2.37321 -0.0936,3.23026 -0.379781,0.79243 -1.708547,2.08428 -2.617723,2.545 -2.412365,1.22245 -5.385609,1.49304 -7.039481,0.64068 -0.541958,-0.27932 -1.432029,-1.08445 -1.432029,-1.29537 0,-0.7961 -3.422284,3.40215 -5.903875,7.24252 -4.247101,6.57259 -6.603422,12.28935 -8.928993,21.66299 -0.511025,2.05978 -0.720987,2.69488 -0.902735,2.73063 -0.401805,0.0791 -3.222867,-2.40786 -4.679757,-4.12542 -0.387089,-0.45636 -0.779367,-0.90881 -0.871734,-1.00543 -0.09243,-0.0966 -0.656466,-0.89928 -1.253585,-1.78368 -2.315026,-3.42879 -3.811142,-7.51456 -4.314507,-11.78264 -0.161677,-1.37016 -0.102446,-5.38642 0.101444,-6.88311 l 0.09143,-0.67101 h 3.371996 c 3.243639,0 3.371996,0.01 3.371996,0.2742 0,0.15083 -0.05356,0.3073 -0.11913,0.34779 -0.125304,0.0774 -0.589126,1.64023 -0.842703,2.839 -0.340689,1.61049 -0.330778,2.79518 0.04538,5.43872 0.135314,0.95114 0.900165,3.90598 1.254902,4.84842 0.733034,1.94751 2.569838,5.32515 2.894025,5.32176 0.04788,-5.7e-4 0.429886,-0.96993 0.848793,-2.15429 3.542532,-10.01566 8.45596,-18.14286 14.859814,-24.57925 1.140228,-1.14602 2.140786,-2.08366 2.223493,-2.08366 0.08276,0 0.233421,-0.11796 0.334949,-0.26228 0.309037,-0.43911 1.784163,-1.30184 2.994684,-1.75145 0.808899,-0.30044 1.518791,-0.45124 2.41672,-0.51339 l 1.271388,-0.0879 -1.836454,-0.7326 c -3.06336,-1.22203 -7.644942,-2.51216 -11.477808,-3.23204 -0.902334,-0.16949 -1.199792,-0.21917 -2.436825,-0.40706 -3.328749,-0.5056 -6.279068,-0.69591 -10.806792,-0.6971 -5.783945,-0.002 -9.035643,0.29342 -13.98526,1.26847 -9.027627,1.77841 -16.21347,4.84297 -22.390537,9.54894 -1.134433,0.86426 -4.216524,3.98758 -5.0403697,5.10782 -1.7444601,2.37202 -2.9101637,4.76498 -3.547364,7.28205 -0.3435032,1.35689 -0.3790937,1.74031 -0.3751761,4.04187 0.00367,2.13228 0.054026,2.74136 0.3122157,3.77284 0.3520258,1.40638 1.128785,3.50234 1.2979713,3.50234 0.062585,0 0.5618547,0.41481 1.1094773,0.92183 0.8842081,0.81865 1.9245445,2.21295 2.1916745,2.93738 0.172488,0.46777 0.974222,0.0193 2.477872,-1.38582 2.360706,-2.20612 4.080443,-5.22178 5.880914,-10.31253 1.899603,-5.37105 3.82883,-8.999 6.753284,-12.69973 1.663794,-2.10541 4.280896,-4.66861 5.207007,-5.09973 0.415219,-0.19331 0.834427,-0.35208 0.931533,-0.35283 0.257931,-0.002 0.215685,0.46709 -0.07058,0.78425 -0.428518,0.47469 -1.547589,2.2279 -1.797845,2.81663 -0.456248,1.07332 -1.089906,3.25388 -1.272582,4.37923 -0.327032,2.01468 -0.397909,3.01398 -0.410805,5.79187 -0.01485,3.19098 0.111004,5.15617 0.330132,5.15617 0.06095,0 0.222841,-0.30194 0.359737,-0.671 0.405843,-1.09401 2.026662,-4.2467 2.896144,-5.63333 1.185276,-1.89023 2.396264,-3.51001 4.359023,-5.83046 3.366306,-3.97979 6.67822,-6.9353 8.320696,-7.42529 0.549099,-0.16384 0.377061,0.46992 -0.401288,1.47813 -0.76939,0.99661 -2.203671,3.78649 -2.660703,5.17543 -0.644487,1.95866 -1.164521,5.12843 -1.167224,7.11465 -0.0014,1.02253 0.272764,3.47473 0.536952,4.80303 0.663091,3.3338 1.648599,5.88627 3.654305,9.46476 0.785707,1.40183 2.927727,4.72824 3.678814,5.71296 0.572925,0.75116 0.424446,0.78524 -3.419882,0.78524 h -3.430743 l -0.334699,-0.52974 c -0.710709,-1.12491 -1.953398,-3.43109 -2.772058,-5.14441 -2.030799,-4.25009 -3.088937,-8.98925 -3.155043,-14.13061 l -0.02853,-2.21723 -0.605244,0.94585 c -0.999223,1.56157 -3.067997,5.8989 -3.820101,8.0091 -0.77538,2.17554 -2.101805,6.52694 -2.562144,8.40529 -0.363212,1.48203 -0.509643,1.83645 -0.758743,1.83645 -0.309086,0 -1.534771,-2.75245 -2.642071,-5.93314 -0.404078,-1.16071 -0.991517,-3.75147 -1.355354,-5.9775 -0.04046,-0.24754 -0.108652,-1.51611 -0.151549,-2.81903 l -0.07798,-2.36895 -0.326515,0.70475 c -0.179582,0.38761 -0.738345,1.89862 -1.241693,3.35782 -1.590892,4.61191 -2.290184,6.23024 -3.668226,8.48918 -1.476071,2.41962 -3.531764,4.79157 -5.039651,5.81499 -0.271935,0.18455 -0.521579,0.35682 -0.554763,0.38279 -0.217773,0.17043 2.708402,2.6499 4.694849,3.97814 7.689626,5.14164 17.345674,8.16604 28.915982,9.05688 2.395748,0.18445 9.999828,0.0637 12.564794,-0.19937 z"
       style="fill:#db4a37;stroke-width:0.14126526;fill-opacity:1" />
  </g>
</svg>
